<svg xmlns="http://www.w3.org/2000/svg" xml:space="preserve" width="18" height="18" viewBox="0 0 64 64"><path d="M6 39v21a3 3 0 0 0 3 3h28V39h12v24h6a3 3 0 0 0 3-3V39L32 13 6 39zm21 12H15V39h12v12zm36.189-19.04.006-.007L52 20.757V12a3 3 0 1 0-6 0v2.757L34.195 2.953l-.002.002a2.992 2.992 0 0 0-1.865-.937l-.009-.001A3.068 3.068 0 0 0 32.001 2H32c-.85 0-1.616.354-2.162.922L.922 31.838a3 3 0 1 0 4.184 4.298l.001.001L32 9.245v.001l.077.072v.002l26.877 26.877.007-.008A2.98 2.98 0 0 0 61 37a3 3 0 0 0 3-3c0-.79-.312-1.504-.811-2.04z"/></svg>
